<svg width="492.32" height="478.227" viewBox="0 0 369.24 358.67" class="displayed_equation" xmlns="http://www.w3.org/2000/svg">
  <path d="M 123.945313 123.965625 L 3283.984375 123.965625 M 123.945313 913.965625 L 3283.984375 913.965625 M 123.945313 1703.965625 L 3283.984375 1703.965625 M 123.945313 2494.004688 L 3283.984375 2494.004688 M 123.945313 3284.004688 L 3283.984375 3284.004688 M 123.945313 123.965625 L 123.945313 3284.004688 M 913.984375 123.965625 L 913.984375 3284.004688 M 1703.984375 123.965625 L 1703.984375 3284.004688 M 2493.984375 123.965625 L 2493.984375 3284.004688 M 3283.984375 123.965625 L 3283.984375 3284.004688" transform="matrix(.1 0 0 -.1 0 358.67)" fill="none" stroke-width="3.985" stroke-linejoin="round" stroke="#a5a5a6" stroke-miterlimit="10" />
  <path d="M 1703.984375 173.926563 L 1703.984375 3234.004688" transform="matrix(.1 0 0 -.1 0 358.67)" fill="none" stroke-width="7.97" stroke-linejoin="round" stroke="#000" stroke-miterlimit="10" />
  <path d="M 170.398438 345.140625 L 172.460938 339.671875 L 170.398438 341.476563 L 168.335938 339.671875" />
  <path d="M 1703.984375 135.29375 L 1724.609375 189.98125 L 1703.984375 171.934375 L 1683.359375 189.98125 Z M 1703.984375 135.29375" transform="matrix(.1 0 0 -.1 0 358.67)" fill="none" stroke-width="7.97" stroke="#000" stroke-miterlimit="10" />
  <path d="M 170.398438 31.40625 L 168.335938 36.875 L 170.398438 35.070313 L 172.460938 36.875" />
  <path d="M 1703.984375 3272.6375 L 1683.359375 3217.95 L 1703.984375 3235.996875 L 1724.609375 3217.95 Z M 1703.984375 3272.6375" transform="matrix(.1 0 0 -.1 0 358.67)" fill="none" stroke-width="7.97" stroke="#000" stroke-miterlimit="10" />
  <path d="M147.382813 22.007813C147.382813 22.96875 147.28125 23.136719 146.28125 23.136719L146.28125 23.46875 149.492188 23.46875 149.492188 23.136719C148.5 23.136719 148.398438 22.96875 148.398438 22.007813L148.398438 17.613281C148.398438 16.742188 148.433594 16.476563 149.492188 16.476563L149.492188 16.140625 146.28125 16.140625 146.28125 16.476563C147.339844 16.476563 147.382813 16.742188 147.382813 17.613281L147.382813 22.007813M151.964844 19.488281C152.289063 19.1875 152.777344 18.773438 153.359375 18.773438 153.871094 18.773438 154.253906 19.019531 154.253906 19.96875L154.253906 22.175781C154.253906 22.957031 154.183594 23.148438 153.390625 23.148438L153.390625 23.46875 156.035156 23.46875 156.035156 23.148438C155.234375 23.148438 155.175781 22.945313 155.175781 22.175781L155.175781 19.464844C155.546875 19.152344 156.003906 18.773438 156.460938 18.773438 156.984375 18.773438 157.417969 19.019531 157.417969 20.035156L157.417969 22.175781C157.417969 22.855469 157.386719 23.148438 156.628906 23.148438L156.628906 23.46875 159.148438 23.46875 159.148438 23.148438C158.378906 23.148438 158.34375 22.878906 158.34375 22.175781L158.34375 19.898438C158.34375 18.550781 157.777344 18.058594 156.90625 18.058594 156.316406 18.058594 155.746094 18.382813 155.132813 18.984375L155.089844 18.984375C154.863281 18.449219 154.484375 18.058594 153.851563 18.058594 153.089844 18.058594 152.578125 18.472656 151.976563 18.996094L151.929688 18.996094 151.929688 18.09375 151.664063 18.09375 150.269531 18.417969 150.269531 18.738281C150.269531 18.738281 150.402344 18.71875 150.570313 18.71875 150.882813 18.71875 151.039063 18.816406 151.039063 19.21875L151.039063 22.34375C151.039063 23.011719 150.960938 23.148438 150.257813 23.148438L150.257813 23.46875 152.800781 23.46875 152.800781 23.148438C152.109375 23.148438 151.964844 23.011719 151.964844 22.386719L151.964844 19.488281M162.835938 22.777344C162.902344 23.269531 163.015625 23.527344 163.507813 23.527344 164.074219 23.527344 164.34375 23.292969 164.710938 22.757813L164.542969 22.578125C164.386719 22.746094 164.230469 22.855469 164.019531 22.855469 163.785156 22.855469 163.683594 22.765625 163.683594 22.308594L163.683594 19.777344C163.683594 18.617188 163.226563 18.058594 162.011719 18.058594 160.796875 18.058594 160.046875 18.660156 160.046875 19.285156 160.046875 19.652344 160.292969 19.820313 160.515625 19.820313 160.828125 19.820313 161.007813 19.652344 161.007813 19.308594 161.007813 18.640625 161.117188 18.402344 161.753906 18.402344 162.421875 18.402344 162.757813 18.773438 162.757813 19.742188L162.757813 20.234375C161.796875 20.535156 159.824219 20.824219 159.824219 22.296875 159.824219 23.011719 160.292969 23.546875 161.152344 23.546875 161.867188 23.546875 162.265625 23.234375 162.792969 22.777344zM162.757813 22.441406C162.378906 22.757813 161.976563 22.933594 161.609375 22.933594 161.128906 22.933594 160.804688 22.589844 160.804688 22.03125 160.804688 21.160156 161.742188 20.859375 162.757813 20.601563L162.757813 22.441406M166.226563 21.417969C165.703125 21.816406 165.3125 22.285156 165.3125 22.6875 165.3125 23 165.558594 23.304688 165.9375 23.492188L165.9375 23.535156C165.335938 24.117188 165.035156 24.496094 165.035156 24.863281 165.035156 25.476563 165.46875 26.09375 166.929688 26.09375 168.335938 26.09375 169.988281 25.578125 169.988281 24.085938 169.988281 22.800781 168.917969 22.757813 167.511719 22.757813 166.484375 22.757813 166.195313 22.644531 166.195313 22.308594 166.195313 22.121094 166.371094 21.71875 166.484375 21.5625 166.773438 21.660156 167.089844 21.730469 167.445313 21.730469 168.617188 21.730469 169.417969 21.070313 169.417969 20.035156 169.417969 19.476563 169.171875 19.105469 169.015625 18.882813L169.015625 18.828125 170.066406 18.863281 170.066406 18.261719 168.628906 18.339844C168.628906 18.339844 168.125 18.058594 167.386719 18.058594 166.207031 18.058594 165.367188 18.761719 165.367188 19.878906 165.367188 20.601563 165.691406 21.082031 166.226563 21.394531zM167.3125 18.460938C168.023438 18.460938 168.425781 19.0625 168.425781 19.96875 168.425781 21.027344 168.011719 21.339844 167.453125 21.339844 166.730469 21.339844 166.351563 20.792969 166.351563 19.832031 166.351563 18.898438 166.730469 18.460938 167.3125 18.460938zM166.21875 23.582031C166.371094 23.582031 166.585938 23.59375 167.476563 23.605469 168.226563 23.613281 169.417969 23.59375 169.417969 24.398438 169.417969 24.875 168.894531 25.457031 167.578125 25.457031 166.441406 25.457031 165.90625 25.132813 165.90625 24.484375 165.90625 24.25 165.984375 23.996094 166.21875 23.582031M171.816406 15.738281C171.425781 15.738281 171.179688 16.027344 171.179688 16.363281 171.179688 16.710938 171.4375 17 171.816406 17 172.207031 17 172.453125 16.710938 172.453125 16.363281 172.453125 16.027344 172.207031 15.738281 171.816406 15.738281zM173.066406 23.15625C172.320313 23.15625 172.265625 22.988281 172.265625 22.34375L172.265625 18.09375 171.972656 18.09375 170.570313 18.402344 170.570313 18.726563C170.570313 18.726563 170.691406 18.707031 170.847656 18.707031 171.171875 18.707031 171.339844 18.75 171.339844 19.230469L171.339844 22.34375C171.339844 22.980469 171.304688 23.15625 170.554688 23.15625L170.554688 23.46875 173.066406 23.46875 173.066406 23.15625M178.765625 20.046875C178.765625 18.761719 178.285156 18.058594 177.273438 18.058594 176.570313 18.058594 176.078125 18.460938 175.476563 18.996094L175.429688 18.996094 175.441406 18.09375 175.183594 18.09375 173.769531 18.417969 173.769531 18.738281C173.769531 18.738281 173.878906 18.71875 174.070313 18.71875 174.371094 18.71875 174.539063 18.804688 174.539063 19.210938L174.539063 22.34375C174.539063 22.96875 174.503906 23.15625 173.757813 23.15625L173.757813 23.46875 176.3125 23.46875 176.3125 23.15625C175.507813 23.15625 175.464844 22.96875 175.464844 22.34375L175.464844 19.476563C175.796875 19.175781 176.210938 18.773438 176.8125 18.773438 177.316406 18.773438 177.839844 18.984375 177.839844 20.324219L177.839844 22.34375C177.839844 22.96875 177.804688 23.15625 177.015625 23.15625L177.015625 23.46875 179.59375 23.46875 179.59375 23.15625C178.84375 23.15625 178.765625 22.96875 178.765625 22.34375L178.765625 20.046875M183.335938 22.777344C183.402344 23.269531 183.515625 23.527344 184.007813 23.527344 184.574219 23.527344 184.84375 23.292969 185.210938 22.757813L185.042969 22.578125C184.886719 22.746094 184.730469 22.855469 184.519531 22.855469 184.285156 22.855469 184.183594 22.765625 184.183594 22.308594L184.183594 19.777344C184.183594 18.617188 183.726563 18.058594 182.511719 18.058594 181.296875 18.058594 180.546875 18.660156 180.546875 19.285156 180.546875 19.652344 180.792969 19.820313 181.015625 19.820313 181.328125 19.820313 181.507813 19.652344 181.507813 19.308594 181.507813 18.640625 181.617188 18.402344 182.253906 18.402344 182.921875 18.402344 183.257813 18.773438 183.257813 19.742188L183.257813 20.234375C182.296875 20.535156 180.324219 20.824219 180.324219 22.296875 180.324219 23.011719 180.792969 23.546875 181.652344 23.546875 182.367188 23.546875 182.765625 23.234375 183.292969 22.777344zM183.257813 22.441406C182.878906 22.757813 182.476563 22.933594 182.109375 22.933594 181.628906 22.933594 181.304688 22.589844 181.304688 22.03125 181.304688 21.160156 182.242188 20.859375 183.257813 20.601563L183.257813 22.441406M187.34375 18.09375L187.074219 18.09375 185.691406 18.429688 185.691406 18.738281C185.691406 18.738281 185.8125 18.71875 186.035156 18.71875 186.4375 18.71875 186.4375 18.917969 186.4375 19.320313L186.4375 22.386719C186.4375 23.011719 186.359375 23.148438 185.621094 23.148438L185.621094 23.46875 188.414063 23.46875 188.414063 23.148438C187.578125 23.148438 187.363281 23.035156 187.363281 22.332031L187.363281 19.789063C187.632813 19.34375 187.988281 18.871094 188.246094 18.871094 188.378906 18.871094 188.601563 19.253906 188.96875 19.253906 189.214844 19.253906 189.460938 19.074219 189.460938 18.652344 189.460938 18.273438 189.25 18.027344 188.8125 18.027344 188.277344 18.027344 187.945313 18.417969 187.375 19.242188L187.34375 19.242188 187.34375 18.09375" />
  <path d="M 195 18.191406 L 193.101563 18.191406 L 193.101563 18.515625 C 193.472656 18.515625 193.726563 18.574219 193.726563 18.796875 C 193.726563 18.882813 193.695313 18.984375 193.671875 19.074219 L 192.601563 22.34375 L 192.523438 22.34375 L 192.367188 21.765625 L 191.273438 19.308594 C 191.207031 19.152344 191.117188 18.960938 191.117188 18.828125 C 191.117188 18.628906 191.253906 18.527344 191.753906 18.527344 L 191.753906 18.191406 L 189.367188 18.191406 L 189.367188 18.515625 C 189.765625 18.515625 189.921875 18.660156 190.035156 18.917969 L 191.675781 22.5 C 191.808594 22.800781 192.011719 23.269531 192.011719 23.414063 C 192.011719 23.738281 191.375 25.121094 191.015625 25.121094 C 190.738281 25.121094 190.503906 24.875 190.113281 24.875 C 189.8125 24.875 189.589844 25.019531 189.589844 25.355469 C 189.589844 25.777344 189.914063 25.9375 190.414063 25.9375 C 191.320313 25.9375 191.867188 25.355469 192.492188 23.714844 L 194.230469 19.140625 C 194.386719 18.707031 194.554688 18.515625 195 18.515625 L 195 18.191406" />
  <path d="M 1930.742188 1703.965625 C 1930.742188 1829.239063 1829.21875 1930.7625 1703.984375 1930.7625 C 1664.179688 1930.7625 1625.078125 1920.254688 1597.539063 1904.35625" transform="matrix(.1 0 0 -.1 0 358.67)" fill="none" stroke-width="7.97" stroke-linejoin="round" stroke="#000" stroke-miterlimit="10" />
  <path d="M 1631.835938 1888.145313 C 1618.398438 1902.0125 1604.960938 1904.473438 1594.0625 1902.364063 C 1601.328125 1910.7625 1605.9375 1923.653125 1600.625 1942.207813" transform="matrix(.1 0 0 -.1 0 358.67)" fill="none" stroke-width="7.995" stroke-linecap="round" stroke-linejoin="round" stroke="#000" stroke-miterlimit="10" />
  <path d="M187.378906 151.386719L187.054688 151.386719C186.796875 152.054688 186.652344 152.289063 186.058594 152.289063L184.507813 152.289063 183.726563 152.320313 183.726563 152.265625 185.203125 150.871094C186.382813 149.679688 187.019531 148.910156 187.019531 147.914063 187.019531 146.742188 186.136719 145.984375 184.878906 145.984375 183.796875 145.984375 183.039063 146.609375 182.691406 147.691406L182.960938 147.804688C183.371094 146.96875 183.863281 146.710938 184.589844 146.710938 185.445313 146.710938 185.980469 147.246094 185.980469 148.082031 185.980469 149.253906 185.421875 149.957031 184.320313 151.09375L182.621094 152.789063 182.621094 153.171875 187.019531 153.171875 187.378906 151.386719M194.773438 147.894531C194.171875 147.9375 193.523438 147.960938 192.832031 147.960938 192.039063 147.949219 191.414063 147.902344 190.609375 147.902344 189.550781 147.902344 188.804688 148.238281 188.335938 149.21875L188.582031 149.390625C189.0625 148.808594 189.304688 148.796875 190.5 148.796875 190.234375 149.746094 189.90625 150.390625 189.328125 151.285156 188.78125 152.132813 188.648438 152.3125 188.144531 153.015625L188.144531 153.171875 189.207031 153.171875C189.664063 152.410156 190.679688 149.988281 190.933594 148.808594 191.480469 148.808594 191.984375 148.832031 192.53125 148.84375 192.074219 150.078125 191.4375 151.449219 191.4375 152.410156 191.4375 152.878906 191.628906 153.269531 192.164063 153.269531 192.84375 153.269531 193.3125 152.945313 193.679688 152.398438L193.535156 152.210938C193.34375 152.355469 193.144531 152.488281 192.753906 152.488281 192.398438 152.488281 192.320313 152.121094 192.320313 151.820313 192.320313 150.972656 192.84375 149.390625 193.023438 148.851563 193.300781 148.863281 193.457031 148.863281 193.621094 148.863281 194.371094 148.863281 194.738281 148.304688 194.796875 148.027344L194.773438 147.894531" />
  <path d="M 1822.148438 2011.778125 L 1948.671875 2011.778125" transform="matrix(.1 0 0 -.1 0 358.67)" fill="none" stroke-width="7.62" stroke-linejoin="round" stroke="#000" stroke-miterlimit="10" />
  <path d="M 186.757813 162.015625 C 187.140625 161.421875 187.550781 161.109375 188.21875 161.109375 C 188.914063 161.109375 189.359375 161.488281 189.359375 162.148438 C 189.359375 163.050781 188.566406 163.664063 187.808594 163.664063 L 187.597656 163.664063 L 187.597656 164.089844 L 187.820313 164.089844 C 188.890625 164.089844 189.839844 164.746094 189.839844 165.738281 C 189.839844 166.835938 189.15625 167.15625 188.453125 167.15625 C 188.1875 167.15625 188.03125 167.113281 187.550781 166.867188 C 187.160156 166.667969 187.070313 166.609375 186.894531 166.609375 C 186.601563 166.609375 186.457031 166.867188 186.457031 167.101563 C 186.457031 167.390625 186.703125 167.714844 187.707031 167.714844 C 189.335938 167.714844 190.753906 166.933594 190.753906 165.40625 C 190.753906 164.410156 190.007813 163.820313 189.113281 163.542969 L 189.113281 163.507813 C 189.816406 163.0625 190.320313 162.648438 190.320313 161.882813 C 190.320313 161.03125 189.660156 160.386719 188.523438 160.386719 C 187.609375 160.386719 186.914063 160.898438 186.503906 161.867188 L 186.757813 162.015625" />
  <path d="M 1625.859375 1552.676563 C 1700.273438 1509.707813 1804.296875 1537.598438 1851.289063 1618.926563 C 1866.210938 1644.785938 1874.0625 1674.121875 1874.0625 1703.965625" transform="matrix(.1 0 0 -.1 0 358.67)" fill="none" stroke-width="7.97" stroke-linejoin="round" stroke="#000" stroke-miterlimit="10" />
  <path d="M 1628.945313 1514.864063 C 1634.257813 1533.41875 1629.6875 1546.309375 1622.382813 1554.707813 C 1633.320313 1552.598438 1646.757813 1555.059375 1660.15625 1568.926563" transform="matrix(.1 0 0 -.1 0 358.67)" fill="none" stroke-width="7.995" stroke-linecap="round" stroke-linejoin="round" stroke="#000" stroke-miterlimit="10" />
  <path d="M175.992188 208.660156L182.640625 208.660156 182.640625 207.902344 175.992188 207.902344zM188.578125 209.386719L188.253906 209.386719C187.996094 210.054688 187.851563 210.289063 187.257813 210.289063L185.710938 210.289063 184.929688 210.320313 184.929688 210.265625 186.402344 208.871094C187.585938 207.679688 188.21875 206.910156 188.21875 205.914063 188.21875 204.742188 187.339844 203.984375 186.078125 203.984375 184.996094 203.984375 184.238281 204.609375 183.890625 205.691406L184.160156 205.804688C184.570313 204.96875 185.0625 204.710938 185.789063 204.710938 186.648438 204.710938 187.179688 205.246094 187.179688 206.082031 187.179688 207.253906 186.621094 207.957031 185.519531 209.09375L183.824219 210.789063 183.824219 211.171875 188.21875 211.171875 188.578125 209.386719M195.972656 205.894531C195.371094 205.9375 194.722656 205.960938 194.03125 205.960938 193.238281 205.949219 192.613281 205.902344 191.8125 205.902344 190.753906 205.902344 190.003906 206.238281 189.535156 207.21875L189.78125 207.390625C190.261719 206.808594 190.507813 206.796875 191.699219 206.796875 191.433594 207.746094 191.109375 208.390625 190.527344 209.285156 189.980469 210.132813 189.847656 210.3125 189.34375 211.015625L189.34375 211.171875 190.40625 211.171875C190.863281 210.410156 191.878906 207.988281 192.132813 206.808594 192.679688 206.808594 193.183594 206.832031 193.730469 206.84375 193.273438 208.078125 192.636719 209.449219 192.636719 210.410156 192.636719 210.878906 192.828125 211.269531 193.363281 211.269531 194.042969 211.269531 194.511719 210.945313 194.878906 210.398438L194.734375 210.210938C194.546875 210.355469 194.34375 210.488281 193.953125 210.488281 193.597656 210.488281 193.519531 210.121094 193.519531 209.820313 193.519531 208.972656 194.042969 207.390625 194.222656 206.851563 194.5 206.863281 194.65625 206.863281 194.824219 206.863281 195.570313 206.863281 195.9375 206.304688 195.996094 206.027344L195.972656 205.894531" />
  <path d="M 1753.4375 1432.403125 L 1960.664063 1432.403125" transform="matrix(.1 0 0 -.1 0 358.67)" fill="none" stroke-width="7.62" stroke-linejoin="round" stroke="#000" stroke-miterlimit="10" />
  <path d="M 183.859375 219.914063 C 184.238281 219.324219 184.652344 219.011719 185.320313 219.011719 C 186.011719 219.011719 186.460938 219.390625 186.460938 220.046875 C 186.460938 220.949219 185.667969 221.566406 184.90625 221.566406 L 184.695313 221.566406 L 184.695313 221.988281 L 184.917969 221.988281 C 185.992188 221.988281 186.9375 222.648438 186.9375 223.640625 C 186.9375 224.734375 186.257813 225.058594 185.554688 225.058594 C 185.289063 225.058594 185.132813 225.011719 184.652344 224.765625 C 184.261719 224.566406 184.171875 224.511719 183.992188 224.511719 C 183.703125 224.511719 183.558594 224.765625 183.558594 225 C 183.558594 225.292969 183.804688 225.613281 184.808594 225.613281 C 186.4375 225.613281 187.851563 224.835938 187.851563 223.304688 C 187.851563 222.3125 187.105469 221.722656 186.214844 221.441406 L 186.214844 221.410156 C 186.914063 220.960938 187.417969 220.550781 187.417969 219.78125 C 187.417969 218.933594 186.757813 218.285156 185.621094 218.285156 C 184.707031 218.285156 184.015625 218.796875 183.601563 219.769531 L 183.859375 219.914063" />
  <path d="M 173.945313 1703.965625 L 3234.023438 1703.965625" transform="matrix(.1 0 0 -.1 0 358.67)" fill="none" stroke-width="7.97" stroke-linejoin="round" stroke="#000" stroke-miterlimit="10" />
  <path d="M 13.53125 188.273438 L 19 190.335938 L 17.195313 188.273438 L 19 186.207031" />
  <path d="M 135.3125 1703.965625 L 190 1683.340625 L 171.953125 1703.965625 L 190 1724.629688 Z M 135.3125 1703.965625" transform="matrix(.1 0 0 -.1 0 358.67)" fill="none" stroke-width="7.97" stroke="#000" stroke-miterlimit="10" />
  <path d="M 327.265625 188.273438 L 321.796875 186.207031 L 323.601563 188.273438 L 321.796875 190.335938" />
  <path d="M 3272.65625 1703.965625 L 3217.96875 1724.629688 L 3236.015625 1703.965625 L 3217.96875 1683.340625 Z M 3272.65625 1703.965625" transform="matrix(.1 0 0 -.1 0 358.67)" fill="none" stroke-width="7.97" stroke="#000" stroke-miterlimit="10" />
  <path d="M338.601563 186.671875C338.601563 185.253906 337.398438 184.839844 335.722656 184.839844L332.980469 184.839844 332.980469 185.175781C333.871094 185.175781 333.972656 185.386719 333.972656 186L333.972656 190.785156C333.972656 191.722656 333.816406 191.835938 332.980469 191.835938L332.980469 192.171875 336.113281 192.171875 336.113281 191.835938C335.15625 191.835938 335.011719 191.710938 335.011719 190.785156L335.011719 188.8125 335.320313 188.8125C335.722656 188.8125 335.847656 188.84375 336.070313 189.179688 336.527344 189.851563 336.851563 190.328125 338.066406 192.171875L339.90625 192.171875 339.90625 191.835938C339.394531 191.835938 339.117188 191.757813 338.757813 191.265625 337.53125 189.515625 337.097656 188.890625 336.71875 188.667969L336.71875 188.621094C337.621094 188.410156 338.601563 187.921875 338.601563 186.671875zM335.011719 185.308594C335.242188 185.285156 335.503906 185.273438 335.746094 185.273438 336.953125 185.273438 337.476563 185.820313 337.476563 186.714844 337.476563 187.898438 336.660156 188.332031 335.433594 188.390625L335.011719 188.375 335.011719 185.308594M344.429688 190.574219C344.074219 191.042969 343.726563 191.445313 342.824219 191.445313 341.929688 191.445313 341.082031 190.742188 341.082031 189.203125L344.609375 189.203125C344.554688 187.640625 343.75 186.757813 342.53125 186.757813 341.226563 186.757813 340.179688 187.652344 340.179688 189.515625 340.179688 191.3125 341.21875 192.28125 342.554688 192.28125 343.703125 192.28125 344.242188 191.578125 344.640625 190.730469zM341.070313 188.789063C341.160156 187.753906 341.609375 187.207031 342.367188 187.207031 343.15625 187.207031 343.527344 187.964844 343.558594 188.789063L341.070313 188.789063M348.4375 191.476563C348.503906 191.96875 348.613281 192.226563 349.105469 192.226563 349.675781 192.226563 349.941406 191.992188 350.3125 191.457031L350.144531 191.277344C349.988281 191.445313 349.832031 191.554688 349.617188 191.554688 349.382813 191.554688 349.285156 191.46875 349.285156 191.007813L349.285156 188.476563C349.285156 187.316406 348.828125 186.757813 347.609375 186.757813 346.394531 186.757813 345.648438 187.363281 345.648438 187.984375 345.648438 188.355469 345.890625 188.523438 346.117188 188.523438 346.429688 188.523438 346.605469 188.355469 346.605469 188.007813 346.605469 187.339844 346.71875 187.105469 347.355469 187.105469 348.023438 187.105469 348.359375 187.472656 348.359375 188.441406L348.359375 188.933594C347.398438 189.234375 345.421875 189.527344 345.421875 190.996094 345.421875 191.710938 345.890625 192.246094 346.753906 192.246094 347.464844 192.246094 347.867188 191.9375 348.390625 191.476563zM348.359375 191.144531C347.976563 191.457031 347.578125 191.632813 347.210938 191.632813 346.730469 191.632813 346.40625 191.289063 346.40625 190.730469 346.40625 189.859375 347.34375 189.558594 348.359375 189.304688L348.359375 191.144531M353.199219 191.847656C352.398438 191.847656 352.34375 191.691406 352.34375 191.042969L352.34375 184.292969 352.0625 184.292969 350.589844 184.683594 350.589844 184.984375C350.589844 184.984375 350.757813 184.964844 350.945313 184.964844 351.226563 184.964844 351.414063 184.984375 351.414063 185.441406L351.414063 191.042969C351.414063 191.667969 351.371094 191.847656 350.632813 191.847656L350.632813 192.171875 353.199219 192.171875 353.199219 191.847656" />
  <path d="M 1633.125 1826.739063 C 1565.3125 1787.598438 1542.109375 1700.91875 1581.25 1633.10625 C 1593.671875 1611.582813 1611.5625 1593.653125 1633.125 1581.23125" transform="matrix(.1 0 0 -.1 0 358.67)" fill="none" stroke-width="7.97" stroke-linejoin="round" stroke="#109e24" stroke-miterlimit="10" />
  <path d="M 150.722656 180.582031 C 150.722656 178.964844 150.230469 177.871094 149.171875 177.871094 C 147.351563 177.871094 145.789063 180.492188 145.789063 183.550781 C 145.789063 185.277344 146.527344 186.027344 147.519531 186.027344 C 149.257813 186.027344 150.722656 183.972656 150.722656 180.582031 Z M 147.742188 185.054688 C 147.152344 185.054688 146.390625 184.652344 146.390625 183.082031 C 146.390625 182.789063 146.414063 182.378906 146.449219 182.101563 L 150.074219 182.101563 C 149.773438 184.207031 148.8125 185.054688 147.742188 185.054688 Z M 148.949219 178.84375 C 149.816406 178.84375 150.175781 179.800781 150.175781 180.851563 C 150.175781 181.050781 150.164063 181.296875 150.152344 181.507813 L 146.5625 181.507813 C 146.949219 179.835938 148 178.84375 148.949219 178.84375" fill="#109e24" />
  <path d="M 2493.984375 1703.965625 C 2493.984375 2140.29375 2140.3125 2494.004688 1703.984375 2494.004688 C 1267.65625 2494.004688 913.984375 2140.29375 913.984375 1703.965625 C 913.984375 1267.676563 1267.65625 913.965625 1703.984375 913.965625 C 2140.3125 913.965625 2493.984375 1267.676563 2493.984375 1703.965625 Z M 2493.984375 1703.965625" transform="matrix(.1 0 0 -.1 0 358.67)" fill="none" stroke-width="7.97" stroke-linejoin="round" stroke="#000" stroke-miterlimit="10" />
  <path d="M1703.984375 1703.965625L1308.984375 2388.145313M1703.984375 1703.965625L1308.984375 1019.825" transform="matrix(.1 0 0 -.1 0 358.67)" fill="none" stroke-width="7.97" stroke-linejoin="round" stroke="#000" stroke-dasharray="29.8883,29.8883" stroke-miterlimit="10" />
  <path d="M133.449219 119.855469C133.449219 118.445313 132.308594 117.304688 130.898438 117.304688 129.488281 117.304688 128.347656 118.445313 128.347656 119.855469 128.347656 121.265625 129.488281 122.40625 130.898438 122.40625 132.308594 122.40625 133.449219 121.265625 133.449219 119.855469zM111.882813 114.210938C111.449219 114.746094 110.957031 114.933594 110.332031 114.933594 109.628906 114.933594 109.148438 114.566406 109.148438 113.460938L109.148438 113.316406C110.453125 113.203125 112.40625 112.679688 112.40625 111.175781 112.40625 110.394531 111.695313 110.226563 111.203125 110.226563 109.40625 110.226563 108.214844 112.121094 108.214844 113.808594 108.214844 114.746094 108.660156 115.703125 109.742188 115.703125 110.511719 115.703125 111.359375 115.445313 112.085938 114.375zM109.171875 112.992188C109.382813 111.890625 110.152344 110.570313 110.980469 110.570313 111.3125 110.570313 111.449219 110.785156 111.449219 111.195313 111.449219 112.234375 110.433594 112.914063 109.171875 112.992188M115.226563 104.457031C115.226563 104.152344 115.023438 103.964844 114.738281 103.964844 114.472656 103.964844 114.269531 104.144531 114.269531 104.457031 114.269531 104.769531 114.472656 104.941406 114.738281 104.941406 115.023438 104.941406 115.226563 104.761719 115.226563 104.457031zM115.046875 105.554688L114.765625 105.554688 113.636719 105.640625 113.636719 105.898438C113.636719 105.898438 113.785156 105.882813 113.910156 105.882813 114.144531 105.882813 114.207031 106.03125 114.207031 106.15625 114.207031 106.3125 114.175781 106.421875 114.175781 106.421875L113.753906 108.425781C113.644531 108.90625 113.621094 109.078125 113.621094 109.210938 113.621094 109.507813 113.832031 109.640625 114.191406 109.640625 114.796875 109.640625 115.09375 109.195313 115.390625 108.789063L115.195313 108.632813C115.089844 108.765625 114.859375 109.070313 114.574219 109.070313 114.472656 109.070313 114.402344 109.023438 114.402344 108.890625 114.402344 108.765625 114.464844 108.472656 114.464844 108.472656L115.046875 105.554688M119.984375 103.820313L119.726563 103.820313C119.5625 104.261719 119.488281 104.394531 119.117188 104.394531L118.339844 104.394531 117.8125 104.433594 117.8125 104.371094 118.578125 103.667969C119.289063 102.988281 119.78125 102.523438 119.78125 101.882813 119.78125 101.148438 119.234375 100.734375 118.445313 100.734375 117.773438 100.734375 117.339844 101.09375 117.101563 101.625L117.289063 101.730469C117.507813 101.394531 117.808594 101.21875 118.292969 101.21875 118.796875 101.21875 119.0625 101.523438 119.0625 101.933594 119.0625 102.671875 118.738281 103.027344 117.96875 103.757813L117.121094 104.578125 117.121094 104.96875 119.765625 104.96875 119.984375 103.820313M125.03125 101.65625L122.425781 101.65625C121.65625 101.65625 121.070313 101.863281 120.746094 102.480469L120.972656 102.621094C121.285156 102.257813 121.460938 102.257813 122.175781 102.257813 121.976563 102.878906 121.808594 103.195313 121.398438 103.824219 121.089844 104.316406 121.015625 104.394531 120.703125 104.792969L120.703125 104.96875 121.382813 104.96875C121.699219 104.460938 122.328125 103.015625 122.507813 102.257813L123.582031 102.257813C123.265625 103.054688 122.890625 103.882813 122.890625 104.480469 122.890625 104.78125 123.019531 105.03125 123.34375 105.03125 123.816406 105.03125 124.109375 104.828125 124.296875 104.515625L124.1875 104.359375C124.070313 104.4375 123.96875 104.492188 123.757813 104.492188 123.535156 104.492188 123.484375 104.230469 123.484375 104.054688 123.484375 103.539063 123.851563 102.585938 123.960938 102.257813L124.382813 102.257813C124.929688 102.257813 125.03125 101.839844 125.03125 101.816406L125.03125 101.65625" />
  <path d="M 1168.046875 2511.348438 L 1251.210938 2511.348438" transform="matrix(.1 0 0 -.1 0 358.67)" fill="none" stroke-width="5.34" stroke-linejoin="round" stroke="#000" stroke-miterlimit="10" />
  <path d="M119.769531 110.894531C119.964844 110.558594 120.277344 110.417969 120.625 110.417969 121.015625 110.417969 121.316406 110.605469 121.316406 110.984375 121.316406 111.515625 120.828125 111.8125 120.367188 111.8125L120.21875 111.8125 120.21875 112.152344 120.378906 112.152344C121.050781 112.152344 121.566406 112.5 121.566406 113.070313 121.566406 113.730469 121.09375 113.890625 120.753906 113.890625 120.558594 113.890625 120.503906 113.847656 120.214844 113.699219 119.976563 113.570313 119.914063 113.535156 119.847656 113.535156 119.628906 113.535156 119.5625 113.722656 119.5625 113.847656 119.5625 114.0625 119.695313 114.25 120.324219 114.25 121.285156 114.25 122.21875 113.875 122.21875 112.902344 122.21875 112.28125 121.742188 111.9375 121.210938 111.8125L121.210938 111.761719C121.640625 111.503906 121.96875 111.273438 121.96875 110.820313 121.96875 110.28125 121.46875 109.933594 120.796875 109.933594 120.265625 109.933594 119.8125 110.222656 119.5625 110.789063L119.769531 110.894531M251.949219 188.273438C251.949219 186.863281 250.808594 185.722656 249.398438 185.722656 247.988281 185.722656 246.847656 186.863281 246.847656 188.273438 246.847656 189.679688 247.988281 190.824219 249.398438 190.824219 250.808594 190.824219 251.949219 189.679688 251.949219 188.273438zM258.253906 184.171875L258.253906 183.855469C257.226563 183.855469 256.8125 183.65625 256.8125 183.109375L256.8125 177.042969 256.492188 177.042969 254.324219 177.652344 254.324219 178.023438C254.671875 177.910156 255.242188 177.84375 255.464844 177.84375 255.742188 177.84375 255.832031 178 255.832031 178.390625L255.832031 183.109375C255.832031 183.667969 255.441406 183.855469 254.390625 183.855469L254.390625 184.171875 258.253906 184.171875M133.449219 256.6875C133.449219 255.28125 132.308594 254.136719 130.898438 254.136719 129.488281 254.136719 128.347656 255.28125 128.347656 256.6875 128.347656 258.097656 129.488281 259.238281 130.898438 259.238281 132.308594 259.238281 133.449219 258.097656 133.449219 256.6875zM105.582031 274.308594C105.148438 274.84375 104.65625 275.035156 104.03125 275.035156 103.328125 275.035156 102.851563 274.664063 102.851563 273.5625L102.851563 273.417969C104.15625 273.304688 106.109375 272.78125 106.109375 271.273438 106.109375 270.492188 105.394531 270.328125 104.902344 270.328125 103.105469 270.328125 101.914063 272.222656 101.914063 273.90625 101.914063 274.84375 102.359375 275.804688 103.441406 275.804688 104.210938 275.804688 105.058594 275.546875 105.785156 274.476563zM102.871094 273.09375C103.085938 271.988281 103.851563 270.671875 104.679688 270.671875 105.015625 270.671875 105.148438 270.882813 105.148438 271.296875 105.148438 272.335938 104.132813 273.015625 102.871094 273.09375M107.378906 267.902344L112.242188 267.902344 112.242188 267.292969 107.378906 267.292969zM115.226563 264.558594C115.226563 264.253906 115.023438 264.066406 114.738281 264.066406 114.472656 264.066406 114.269531 264.246094 114.269531 264.558594 114.269531 264.867188 114.472656 265.039063 114.738281 265.039063 115.023438 265.039063 115.226563 264.859375 115.226563 264.558594zM115.046875 265.65625L114.765625 265.65625 113.636719 265.742188 113.636719 266C113.636719 266 113.785156 265.984375 113.910156 265.984375 114.144531 265.984375 114.207031 266.132813 114.207031 266.257813 114.207031 266.414063 114.175781 266.523438 114.175781 266.523438L113.753906 268.523438C113.644531 269.007813 113.621094 269.179688 113.621094 269.3125 113.621094 269.609375 113.832031 269.742188 114.191406 269.742188 114.796875 269.742188 115.09375 269.296875 115.390625 268.890625L115.195313 268.734375C115.089844 268.867188 114.859375 269.171875 114.574219 269.171875 114.472656 269.171875 114.402344 269.125 114.402344 268.992188 114.402344 268.867188 114.464844 268.570313 114.464844 268.570313L115.046875 265.65625M119.984375 263.921875L119.726563 263.921875C119.5625 264.359375 119.488281 264.496094 119.117188 264.496094L118.339844 264.496094 117.8125 264.53125 117.8125 264.472656 118.578125 263.769531C119.289063 263.089844 119.78125 262.625 119.78125 261.984375 119.78125 261.25 119.234375 260.835938 118.445313 260.835938 117.773438 260.835938 117.339844 261.195313 117.101563 261.726563L117.289063 261.828125C117.507813 261.492188 117.808594 261.316406 118.292969 261.316406 118.796875 261.316406 119.0625 261.621094 119.0625 262.03125 119.0625 262.773438 118.738281 263.125 117.96875 263.859375L117.121094 264.679688 117.121094 265.070313 119.765625 265.070313 119.984375 263.921875M125.03125 261.757813L122.425781 261.757813C121.65625 261.757813 121.070313 261.964844 120.746094 262.582031L120.972656 262.722656C121.285156 262.355469 121.460938 262.355469 122.175781 262.355469 121.976563 262.980469 121.808594 263.296875 121.398438 263.925781 121.089844 264.414063 121.015625 264.496094 120.703125 264.894531L120.703125 265.070313 121.382813 265.070313C121.699219 264.5625 122.328125 263.113281 122.507813 262.355469L123.582031 262.355469C123.265625 263.15625 122.890625 263.984375 122.890625 264.582031 122.890625 264.882813 123.019531 265.132813 123.34375 265.132813 123.816406 265.132813 124.109375 264.929688 124.296875 264.617188L124.1875 264.460938C124.070313 264.539063 123.96875 264.59375 123.757813 264.59375 123.535156 264.59375 123.484375 264.332031 123.484375 264.152344 123.484375 263.640625 123.851563 262.6875 123.960938 262.355469L124.382813 262.355469C124.929688 262.355469 125.03125 261.941406 125.03125 261.914063L125.03125 261.757813" />
  <path d="M 1168.046875 910.020313 L 1251.210938 910.020313" transform="matrix(.1 0 0 -.1 0 358.67)" fill="none" stroke-width="5.34" stroke-linejoin="round" stroke="#000" stroke-miterlimit="10" />
  <path d="M 119.769531 270.992188 C 119.964844 270.65625 120.277344 270.515625 120.625 270.515625 C 121.015625 270.515625 121.316406 270.707031 121.316406 271.085938 C 121.316406 271.617188 120.828125 271.910156 120.367188 271.910156 L 120.21875 271.910156 L 120.21875 272.253906 L 120.378906 272.253906 C 121.050781 272.253906 121.566406 272.601563 121.566406 273.171875 C 121.566406 273.828125 121.09375 273.988281 120.753906 273.988281 C 120.558594 273.988281 120.503906 273.945313 120.214844 273.800781 C 119.976563 273.671875 119.914063 273.632813 119.847656 273.632813 C 119.628906 273.632813 119.5625 273.824219 119.5625 273.945313 C 119.5625 274.160156 119.695313 274.351563 120.324219 274.351563 C 121.285156 274.351563 122.21875 273.976563 122.21875 273.003906 C 122.21875 272.382813 121.742188 272.039063 121.210938 271.910156 L 121.210938 271.863281 C 121.640625 271.605469 121.96875 271.375 121.96875 270.921875 C 121.96875 270.382813 121.46875 270.035156 120.796875 270.035156 C 120.265625 270.035156 119.8125 270.320313 119.5625 270.890625 L 119.769531 270.992188" />
</svg>